<svg width="10" height="11" viewBox="0 0 10 11" fill="none" xmlns="http://www.w3.org/2000/svg">
<path d="M5 5C4.46957 5 3.96086 4.78929 3.58579 4.41421C3.21071 4.03914 3 3.53043 3 3C3 2.46957 3.21071 1.96086 3.58579 1.58579C3.96086 1.21071 4.46957 1 5 1C5.53043 1 6.03914 1.21071 6.41421 1.58579C6.78929 1.96086 7 2.46957 7 3C7 3.53043 6.78929 4.03914 6.41421 4.41421C6.03914 4.78929 5.53043 5 5 5Z" stroke="#2B2C34" stroke-linecap="round"/>
<path d="M1 10V9.5C1 8.70435 1.31607 7.94129 1.87868 7.37868C2.44129 6.81607 3.20435 6.5 4 6.5H6C6.79565 6.5 7.55871 6.81607 8.12132 7.37868C8.68393 7.94129 9 8.70435 9 9.5V10" stroke="#2B2C34" stroke-linecap="round"/>
</svg>
