<svg width="9" height="9" viewBox="0 0 9 9" fill="none" xmlns="http://www.w3.org/2000/svg">
<path d="M8.55 0H1.8C1.56131 0 1.33239 0.0948211 1.1636 0.263604C0.994821 0.432387 0.9 0.661305 0.9 0.9V2.25H0V3.15H0.9V4.05H0V4.95H0.9V5.85H0V6.75H0.9V8.1C0.9 8.33869 0.994821 8.56761 1.1636 8.7364C1.33239 8.90518 1.56131 9 1.8 9H8.55C8.66935 9 8.78381 8.95259 8.8682 8.8682C8.95259 8.78381 9 8.66935 9 8.55V0.45C9 0.330653 8.95259 0.216193 8.8682 0.131802C8.78381 0.0474106 8.66935 0 8.55 0ZM4.95 1.34955C5.6916 1.34955 6.3 1.9575 6.3 2.69955C6.2987 3.05723 6.15606 3.3999 5.90318 3.65286C5.6503 3.90583 5.30768 4.04858 4.95 4.05C4.20885 4.05 3.6 3.44115 3.6 2.69955C3.6 1.9575 4.20885 1.34955 4.95 1.34955ZM7.65 7.2H2.25V6.8625C2.25 5.86395 3.46725 4.8375 4.95 4.8375C6.43275 4.8375 7.65 5.86395 7.65 6.8625V7.2Z" fill="#2B2C34"/>
</svg>
