<svg width="20" height="10" viewBox="0 0 20 10" fill="none" xmlns="http://www.w3.org/2000/svg">
<path d="M18.5714 0L17.1428 9.28571L15.7142 0H14.2856L16.0828 10H18.2028L19.9999 0H18.5714Z" fill="#6246EA"/>
<path d="M11.4285 10H7.14282V8.57143H11.4285V5.71429H8.57139C8.19263 5.71391 7.82949 5.56328 7.56166 5.29545C7.29383 5.02762 7.1432 4.66448 7.14282 4.28571V1.42857C7.1432 1.04981 7.29383 0.686664 7.56166 0.418837C7.82949 0.15101 8.19263 0.000378198 8.57139 0H12.8571V1.42857H8.57139V4.28571H11.4285C11.8073 4.28609 12.1704 4.43672 12.4383 4.70455C12.7061 4.97238 12.8567 5.33552 12.8571 5.71429V8.57143C12.8567 8.95019 12.7061 9.31334 12.4383 9.58116C12.1704 9.84899 11.8073 9.99962 11.4285 10Z" fill="#6246EA"/>
<path d="M5.71429 10H1.42857C1.04981 9.99962 0.686664 9.84899 0.418837 9.58116C0.151009 9.31334 0.000378198 8.95019 0 8.57143V1.42857C0.000378198 1.04981 0.151009 0.686664 0.418837 0.418837C0.686664 0.15101 1.04981 0.000378198 1.42857 0H5.71429V1.42857H1.42857V8.57143H5.71429V10Z" fill="#6246EA"/>
</svg>
