<svg width="9" height="9" viewBox="0 0 9 9" fill="none" xmlns="http://www.w3.org/2000/svg">
<path d="M0.48423 4.1577H3.38961C3.51804 4.1577 3.6412 4.10668 3.73201 4.01587C3.82282 3.92506 3.87384 3.80189 3.87384 3.67347V0.768087C3.87384 0.639661 3.82282 0.516495 3.73201 0.425684C3.6412 0.334873 3.51804 0.283856 3.38961 0.283856H0.48423C0.355804 0.283856 0.232639 0.334873 0.141828 0.425684C0.0510169 0.516495 0 0.639661 0 0.768087V3.67347C0 3.80189 0.0510169 3.92506 0.141828 4.01587C0.232639 4.10668 0.355804 4.1577 0.48423 4.1577ZM0.48423 9H3.38961C3.51804 9 3.6412 8.94898 3.73201 8.85817C3.82282 8.76736 3.87384 8.6442 3.87384 8.51577V5.61039C3.87384 5.48196 3.82282 5.3588 3.73201 5.26799C3.6412 5.17718 3.51804 5.12616 3.38961 5.12616H0.48423C0.355804 5.12616 0.232639 5.17718 0.141828 5.26799C0.0510169 5.3588 0 5.48196 0 5.61039V8.51577C0 8.6442 0.0510169 8.76736 0.141828 8.85817C0.232639 8.94898 0.355804 9 0.48423 9ZM5.32653 9H8.23191C8.36034 9 8.48351 8.94898 8.57432 8.85817C8.66513 8.76736 8.71614 8.6442 8.71614 8.51577V5.61039C8.71614 5.48196 8.66513 5.3588 8.57432 5.26799C8.48351 5.17718 8.36034 5.12616 8.23191 5.12616H5.32653C5.19811 5.12616 5.07494 5.17718 4.98413 5.26799C4.89332 5.3588 4.8423 5.48196 4.8423 5.61039V8.51577C4.8423 8.6442 4.89332 8.76736 4.98413 8.85817C5.07494 8.94898 5.19811 9 5.32653 9ZM8.85802 1.87843L7.12157 0.141977C7.07664 0.0969698 7.02328 0.0612637 6.96453 0.0369017C6.90579 0.0125397 6.84282 0 6.77922 0C6.71563 0 6.65266 0.0125397 6.59391 0.0369017C6.53517 0.0612637 6.4818 0.0969698 6.43687 0.141977L4.70042 1.87843C4.65542 1.92336 4.61971 1.97672 4.59535 2.03547C4.57099 2.09421 4.55845 2.15718 4.55845 2.22078C4.55845 2.28437 4.57099 2.34734 4.59535 2.40609C4.61971 2.46483 4.65542 2.5182 4.70042 2.56313L6.43687 4.29958C6.4818 4.34458 6.53517 4.38029 6.59391 4.40465C6.65266 4.42901 6.71563 4.44155 6.77922 4.44155C6.84282 4.44155 6.90579 4.42901 6.96453 4.40465C7.02328 4.38029 7.07664 4.34458 7.12157 4.29958L8.85802 2.56313C8.90303 2.5182 8.93874 2.46483 8.9631 2.40609C8.98746 2.34734 9 2.28437 9 2.22078C9 2.15718 8.98746 2.09421 8.9631 2.03547C8.93874 1.97672 8.90303 1.92336 8.85802 1.87843Z" fill="#2B2C34"/>
</svg>
