<svg width="6" height="6" viewBox="0 0 6 6" fill="none" xmlns="http://www.w3.org/2000/svg">
<path d="M0.666667 6H5.33333C5.51014 6 5.67971 5.92976 5.80474 5.80474C5.92976 5.67971 6 5.51014 6 5.33333V1.66667L4.33333 0H0.666667C0.489856 0 0.320286 0.0702379 0.195262 0.195262C0.0702379 0.320286 0 0.489856 0 0.666667V5.33333C0 5.51014 0.0702379 5.67971 0.195262 5.80474C0.320286 5.92976 0.489856 6 0.666667 6ZM1.33333 0.666667H2.66667V1.33333H3.33333V0.666667H4V2H1.33333V0.666667ZM1.33333 3.33333H4.66667V5.33333H1.33333V3.33333Z" fill="#2B2C34"/>
</svg>
