<svg width="12" height="12" viewBox="0 0 12 12" fill="none" xmlns="http://www.w3.org/2000/svg">
<path d="M11.3711 0.296591L11.7002 0.622154C12.1537 1.07132 12.0851 1.86757 11.5457 2.40061L4.75874 9.11439L2.55982 9.91009C2.2837 10.0105 2.01484 9.8803 1.96017 9.6204C1.9417 9.52612 1.95039 9.4286 1.98527 9.33898L2.80526 7.14501L9.57327 0.44944C10.1127 -0.0836015 10.9176 -0.152577 11.3711 0.296591ZM4.46254 0.964272C4.53579 0.964272 4.60833 0.978544 4.67601 1.00627C4.74368 1.03401 4.80518 1.07465 4.85698 1.12589C4.90877 1.17713 4.94986 1.23796 4.9779 1.30491C5.00593 1.37186 5.02036 1.44361 5.02036 1.51607C5.02036 1.58854 5.00593 1.66029 4.9779 1.72724C4.94986 1.79419 4.90877 1.85502 4.85698 1.90626C4.80518 1.9575 4.74368 1.99814 4.67601 2.02587C4.60833 2.0536 4.53579 2.06788 4.46254 2.06788H2.23127C1.93538 2.06788 1.65162 2.18415 1.4424 2.39111C1.23317 2.59808 1.11564 2.87879 1.11564 3.17148V9.79311C1.11564 10.0858 1.23317 10.3665 1.4424 10.5735C1.65162 10.7804 1.93538 10.8967 2.23127 10.8967H8.92508C9.22096 10.8967 9.50473 10.7804 9.71395 10.5735C9.92318 10.3665 10.0407 10.0858 10.0407 9.79311V7.5859C10.0407 7.43955 10.0995 7.2992 10.2041 7.19572C10.3087 7.09224 10.4506 7.0341 10.5985 7.0341C10.7465 7.0341 10.8884 7.09224 10.993 7.19572C11.0976 7.2992 11.1564 7.43955 11.1564 7.5859V9.79311C11.1564 10.3785 10.9213 10.9399 10.5028 11.3538C10.0844 11.7678 9.51685 12.0003 8.92508 12.0003H2.23127C1.6395 12.0003 1.07197 11.7678 0.653524 11.3538C0.23508 10.9399 0 10.3785 0 9.79311V3.17148C0 2.58609 0.23508 2.02468 0.653524 1.61075C1.07197 1.19682 1.6395 0.964272 2.23127 0.964272H4.46254Z" fill="white"/>
</svg>
