<svg width="13" height="11" viewBox="0 0 13 11" fill="none" xmlns="http://www.w3.org/2000/svg">
<path d="M8.70924 6.15109C8.8189 5.85807 8.87452 5.54759 8.87343 5.23473C8.87343 4.54005 8.59747 3.87383 8.10626 3.38262C7.61505 2.89141 6.94883 2.61546 6.25415 2.61546C5.94514 2.61582 5.63868 2.67142 5.34924 2.77964L5.96397 3.41346C6.05742 3.39851 6.15188 3.39085 6.24652 3.39055C6.7377 3.38952 7.20934 3.58288 7.55844 3.92841C7.90755 4.27394 8.10576 4.74356 8.10979 5.23473C8.10947 5.32936 8.10181 5.42383 8.08688 5.51727L8.70924 6.15109Z" fill="#2B2C34"/>
<path d="M12.1838 5.05527C10.8971 2.67655 8.64052 1.23709 6.14343 1.23709C5.46354 1.23869 4.78823 1.34823 4.1427 1.56164L4.75743 2.18018C5.21021 2.06317 5.67578 2.00289 6.14343 2.00073C8.29306 2.00073 10.248 3.19964 11.4125 5.21945C10.9853 5.96881 10.419 6.62973 9.74397 7.16673L10.2862 7.70891C11.0674 7.07866 11.7162 6.30007 12.1952 5.418L12.2945 5.23473L12.1838 5.05527Z" fill="#2B2C34"/>
<path d="M0.950727 0.568909L2.65364 2.27182C1.57726 2.96486 0.697544 3.92348 0.0992727 5.05527L0 5.23473L0.0992727 5.418C1.386 7.79673 3.64254 9.23618 6.13964 9.23618C7.11429 9.23598 8.07628 9.01539 8.95364 8.59091L10.8627 10.5L11.5309 9.92727L1.60364 0L0.950727 0.568909ZM4.67345 4.29164L7.21254 6.83073C6.92566 7.00831 6.59539 7.10342 6.258 7.10564C6.01285 7.10564 5.77011 7.05717 5.54376 6.96301C5.31741 6.86884 5.11192 6.73085 4.9391 6.55697C4.76628 6.38309 4.62956 6.17675 4.53679 5.94983C4.44402 5.7229 4.39704 5.47988 4.39855 5.23473C4.40285 4.90123 4.49788 4.57521 4.67345 4.29164ZM4.11982 3.738C3.7626 4.24177 3.59517 4.85569 3.64717 5.47107C3.69917 6.08644 3.96725 6.66356 4.40393 7.10025C4.84062 7.53694 5.41774 7.80501 6.03311 7.85701C6.64849 7.90901 7.26241 7.74158 7.76618 7.38436L8.37709 7.99527C7.66988 8.29757 6.90875 8.45343 6.13964 8.45345C3.99 8.45345 2.03509 7.25455 0.870545 5.23473C1.42942 4.24514 2.23429 3.41659 3.20727 2.82927L4.11982 3.738Z" fill="#2B2C34"/>
</svg>
