<svg width="9" height="9" viewBox="0 0 9 9" fill="none" xmlns="http://www.w3.org/2000/svg">
<path fill-rule="evenodd" clip-rule="evenodd" d="M0.924121 1.76831L0.240171 1.08439C0.220504 1.06468 0.195427 1.05124 0.168117 1.0458C0.140807 1.04035 0.112495 1.04314 0.08677 1.0538C0.0610449 1.06446 0.0390654 1.08252 0.0236178 1.10569C0.0081703 1.12886 -4.9599e-05 1.1561 2.25167e-07 1.18394V3.23456C2.25167e-07 3.31217 0.0629957 3.37517 0.140615 3.37517H2.19134C2.21919 3.37522 2.24643 3.367 2.2696 3.35155C2.29277 3.3361 2.31083 3.31412 2.32149 3.2884C2.33216 3.26268 2.33494 3.23437 2.32949 3.20706C2.32405 3.17975 2.31061 3.15467 2.2909 3.13501L1.52708 2.37123C2.02499 1.67587 2.75094 1.17707 3.57863 0.961617C4.40631 0.746165 5.28335 0.827697 6.05713 1.19203C6.83091 1.55636 7.45247 2.18043 7.81365 2.95565C8.17483 3.73088 8.25278 4.60819 8.03393 5.43494C7.81509 6.26169 7.31329 6.98556 6.61587 7.48059C5.91844 7.97563 5.06952 8.21049 4.21681 8.14433C3.3641 8.07816 2.56157 7.71515 1.94887 7.11846C1.33616 6.52176 0.952053 5.72915 0.863376 4.87854C0.851889 4.76719 0.796637 4.66496 0.709773 4.59434C0.622908 4.52373 0.511548 4.49051 0.40019 4.50199C0.288832 4.51348 0.186598 4.56873 0.115978 4.65559C0.0453581 4.74245 0.0121372 4.8538 0.0236235 4.96515C0.131834 6.00634 0.599668 6.97724 1.34659 7.71069C2.09351 8.44415 3.07278 8.89428 4.11582 8.98359C5.15885 9.0729 6.2004 8.7958 7.06115 8.19999C7.92189 7.60419 8.54799 6.72696 8.83164 5.71932C9.1153 4.71169 9.03877 3.63669 8.61524 2.67939C8.1917 1.72209 7.44765 0.942387 6.51118 0.474511C5.57471 0.00663461 4.50442 -0.120142 3.48455 0.116005C2.46468 0.352152 1.55905 0.936448 0.923559 1.76831H0.924121ZM4.35906 2.25031C4.47094 2.25031 4.57824 2.29475 4.65735 2.37386C4.73646 2.45296 4.78091 2.56025 4.78091 2.67213V4.35492L5.92158 4.81161C6.0221 4.85543 6.1016 4.93666 6.14324 5.0381C6.18489 5.13953 6.18539 5.25319 6.14466 5.355C6.10392 5.4568 6.02514 5.53874 5.92501 5.58345C5.82489 5.62816 5.71129 5.63213 5.60829 5.59451L4.20214 5.03208C4.12394 5.00074 4.05691 4.94671 4.0097 4.87694C3.96248 4.80718 3.93724 4.72487 3.93722 4.64063V2.67213C3.93722 2.56025 3.98166 2.45296 4.06077 2.37386C4.13988 2.29475 4.24718 2.25031 4.35906 2.25031Z" fill="#2B2C34"/>
</svg>
