<svg width="8" height="9" viewBox="0 0 8 9" fill="none" xmlns="http://www.w3.org/2000/svg">
<path d="M7.88712 3.05498L4.11758 0.0623121C4.06598 0.0214119 4.00248 -0.000529511 3.93726 9.70627e-06C3.87204 0.000548923 3.80888 0.0235376 3.75794 0.0652856L0.108937 3.05784C0.0749549 3.08578 0.0475252 3.12119 0.0286709 3.16146C0.00981665 3.20172 1.88631e-05 3.24581 2.31771e-08 3.29047V8.70207C-1.52229e-05 8.74119 0.00749141 8.77994 0.0220908 8.8161C0.0366902 8.85225 0.0580962 8.8851 0.0850854 8.91277C0.112075 8.94044 0.144118 8.96239 0.179384 8.97735C0.21465 8.99232 0.252447 9.00002 0.290616 9H2.45974C2.5368 8.99997 2.6107 8.96857 2.6652 8.9127C2.71969 8.85684 2.75032 8.78107 2.75035 8.70207V5.38863H5.2493V8.70207C5.2493 8.78108 5.27992 8.85686 5.33442 8.91274C5.38892 8.96861 5.46284 9 5.53992 9H7.70938C7.78645 8.99997 7.86035 8.96857 7.91485 8.9127C7.96934 8.85684 7.99997 8.78107 8 8.70207V3.29047C8.00003 3.24498 7.98986 3.20009 7.97029 3.15926C7.95072 3.11843 7.92226 3.08275 7.88712 3.05498Z" fill="white"/>
</svg>
