<svg width="12" height="12" viewBox="0 0 12 12" fill="none" xmlns="http://www.w3.org/2000/svg">
<path fill-rule="evenodd" clip-rule="evenodd" d="M10.5 0.75H1.5C1.30109 0.75 1.11032 0.829018 0.96967 0.96967C0.829018 1.11032 0.75 1.30109 0.75 1.5V10.5C0.75 10.6989 0.829018 10.8897 0.96967 11.0303C1.11032 11.171 1.30109 11.25 1.5 11.25H10.5C10.6989 11.25 10.8897 11.171 11.0303 11.0303C11.171 10.8897 11.25 10.6989 11.25 10.5V1.5C11.25 1.30109 11.171 1.11032 11.0303 0.96967C10.8897 0.829018 10.6989 0.75 10.5 0.75ZM1.5 0C1.10218 0 0.720644 0.158035 0.43934 0.43934C0.158035 0.720644 0 1.10218 0 1.5L0 10.5C0 10.8978 0.158035 11.2794 0.43934 11.5607C0.720644 11.842 1.10218 12 1.5 12H10.5C10.8978 12 11.2794 11.842 11.5607 11.5607C11.842 11.2794 12 10.8978 12 10.5V1.5C12 1.10218 11.842 0.720644 11.5607 0.43934C11.2794 0.158035 10.8978 0 10.5 0L1.5 0Z" fill="white"/>
<path fill-rule="evenodd" clip-rule="evenodd" d="M5.73456 8.5155C5.69964 8.48067 5.67193 8.43928 5.65303 8.39373C5.63412 8.34817 5.62439 8.29933 5.62439 8.25C5.62439 8.20068 5.63412 8.15183 5.65303 8.10628C5.67193 8.06072 5.69964 8.01933 5.73456 7.9845L7.71981 6L5.73456 4.0155C5.69969 3.98063 5.67204 3.93924 5.65317 3.89369C5.6343 3.84813 5.62459 3.79931 5.62459 3.75C5.62459 3.70069 5.6343 3.65187 5.65317 3.60631C5.67204 3.56076 5.69969 3.51937 5.73456 3.4845C5.76943 3.44963 5.81082 3.42198 5.85637 3.40311C5.90193 3.38424 5.95075 3.37453 6.00006 3.37453C6.04937 3.37453 6.09819 3.38424 6.14375 3.40311C6.1893 3.42198 6.23069 3.44963 6.26556 3.4845L8.51556 5.7345C8.55048 5.76934 8.57819 5.81072 8.59709 5.85628C8.616 5.90183 8.62573 5.95068 8.62573 6C8.62573 6.04933 8.616 6.09817 8.59709 6.14373C8.57819 6.18928 8.55048 6.23067 8.51556 6.2655L6.26556 8.5155C6.23073 8.55042 6.18934 8.57813 6.14378 8.59703C6.09823 8.61594 6.04939 8.62567 6.00006 8.62567C5.95073 8.62567 5.90189 8.61594 5.85633 8.59703C5.81078 8.57813 5.76939 8.55042 5.73456 8.5155Z" fill="white"/>
<path fill-rule="evenodd" clip-rule="evenodd" d="M3.375 6C3.375 5.90054 3.41451 5.80516 3.48484 5.73484C3.55516 5.66451 3.65054 5.625 3.75 5.625H7.5C7.59946 5.625 7.69484 5.66451 7.76517 5.73484C7.83549 5.80516 7.875 5.90054 7.875 6C7.875 6.09946 7.83549 6.19484 7.76517 6.26517C7.69484 6.33549 7.59946 6.375 7.5 6.375H3.75C3.65054 6.375 3.55516 6.33549 3.48484 6.26517C3.41451 6.19484 3.375 6.09946 3.375 6Z" fill="white"/>
</svg>
