<svg width="40" height="13" viewBox="0 0 40 13" fill="none" xmlns="http://www.w3.org/2000/svg">
<g clip-path="url(#clip0)">
<path d="M4.77681 0.213622H7.76792V7.04414C7.76792 8.47753 7.66897 9.56868 7.47331 10.3176C7.27765 11.0664 6.88634 11.7012 6.29487 12.2219C5.70336 12.7397 4.94772 13 4.02567 13C3.04958 13 2.29394 12.8303 1.75872 12.4852C1.2212 12.1429 0.807382 11.6427 0.517263 10.9815C0.224899 10.3234 0.0517474 9.50721 0 8.53602L2.85168 8.02994C2.85617 8.58281 2.89445 8.99529 2.96416 9.26446C3.03387 9.53356 3.15308 9.75002 3.31949 9.91384C3.43416 10.025 3.59608 10.0777 3.80751 10.0777C4.14034 10.0777 4.3855 9.91677 4.54294 9.59496C4.69808 9.2703 4.77682 8.72619 4.77682 7.9627V0.213622H4.77681ZM9.23646 8.62085L12.0769 8.38979C12.1376 8.98946 12.2636 9.44581 12.4525 9.76171C12.7583 10.2707 13.1992 10.5223 13.7704 10.5223C14.1955 10.5223 14.5238 10.3936 14.7554 10.1332C14.9848 9.87289 15.0995 9.57159 15.0995 9.22934C15.0995 8.90462 14.9916 8.61209 14.7712 8.35467C14.5508 8.09725 14.0425 7.85444 13.2419 7.62629C11.933 7.24309 10.9997 6.73695 10.4419 6.10216C9.87968 5.46738 9.59859 4.66002 9.59859 3.67714C9.59859 3.03061 9.7425 2.41926 10.0304 1.84587C10.3182 1.27255 10.75 0.822039 11.328 0.491472C11.906 0.163825 12.6976 1.90735e-06 13.7029 1.90735e-06C14.9376 1.90735e-06 15.8799 0.298445 16.5276 0.895192C17.1753 1.49194 17.5599 2.44262 17.6836 3.74438L14.8702 3.95792C14.7959 3.39337 14.6385 2.9809 14.3979 2.72348C14.1595 2.46898 13.8288 2.34027 13.4083 2.34027C13.0597 2.34027 12.7989 2.43386 12.6234 2.62696C12.448 2.81707 12.3603 3.05112 12.3603 3.32606C12.3603 3.525 12.4322 3.70343 12.5762 3.86433C12.7179 4.03108 13.0507 4.18321 13.5792 4.32652C14.8836 4.69221 15.817 5.06374 16.3814 5.43818C16.9459 5.81262 17.3575 6.27482 17.6139 6.83061C17.8702 7.38348 18.0007 8.00366 18.0007 8.69108C18.0007 9.49553 17.8275 10.2386 17.4857 10.9172C17.1439 11.5988 16.6648 12.1136 16.0486 12.4647C15.4346 12.8157 14.6587 12.9912 13.7232 12.9912C12.0814 12.9912 10.9434 12.5817 10.3115 11.7568C9.67729 10.9348 9.3197 9.89042 9.23647 8.62085H9.23646ZM19.1252 6.50296C19.1252 4.45232 19.566 2.8551 20.4431 1.71424C21.3224 0.570465 22.5459 1.01336e-05 24.1134 1.01336e-05C25.7214 1.01336e-05 26.9606 0.561708 27.8309 1.68497C28.699 2.80538 29.1353 4.37915 29.1353 6.40054C29.1353 7.86904 28.9441 9.07428 28.5641 10.0133C28.184 10.9523 27.6352 11.6836 26.9178 12.2072C26.1981 12.7309 25.3053 12.9912 24.2326 12.9912C23.144 12.9912 22.2422 12.766 21.5271 12.3155C20.8141 11.8621 20.2361 11.1483 19.7908 10.1713C19.3478 9.19423 19.1252 7.97146 19.1252 6.50295L19.1252 6.50296ZM22.1118 6.52049C22.1118 7.79012 22.2917 8.69985 22.6538 9.25563C23.0159 9.8085 23.5106 10.0864 24.1336 10.0864C24.7745 10.0864 25.2716 9.8144 25.6224 9.27322C25.9733 8.72911 26.1509 7.755 26.1509 6.35081C26.1509 5.16608 25.9665 4.30315 25.5999 3.75611C25.2334 3.21201 24.7363 2.93992 24.1066 2.93992C23.5061 2.93992 23.0226 3.21492 22.6583 3.77072C22.294 4.32359 22.1118 5.24214 22.1118 6.52047V6.52049ZM30.7613 0.213613H33.5499L37.1865 7.16409V0.213613H40V12.7777H37.1865L33.5679 5.87986V12.7777H30.7613V0.213613Z" fill="#e22726"/>
</g>
<defs>
<clipPath id="clip0">
<rect width="40" height="13" fill="white"/>
</clipPath>
</defs>
</svg>
