<svg width="8" height="7" viewBox="0 0 8 7" fill="none" xmlns="http://www.w3.org/2000/svg">
<path d="M1.2 0.000368337H6.8C7.11826 0.000368337 7.42348 0.116769 7.64853 0.323965C7.87357 0.53116 8 0.812177 8 1.1052V4.0514C8 4.34442 7.87357 4.62543 7.64853 4.83263C7.42348 5.03983 7.11826 5.15623 6.8 5.15623H4.0168L1.4392 6.9269C1.37969 6.96778 1.30899 6.9926 1.23503 6.99859C1.16106 7.00457 1.08674 6.99149 1.0204 6.96079C0.954053 6.9301 0.898297 6.883 0.859371 6.82479C0.820446 6.76657 0.799888 6.69953 0.8 6.63117V5.15586C0.587827 5.15586 0.384344 5.07826 0.234315 4.94013C0.0842854 4.802 0 4.61465 0 4.41931V1.10483C0 0.811809 0.126428 0.530792 0.351472 0.323596C0.576516 0.116401 0.88174 0 1.2 0V0.000368337Z" fill="black"/>
</svg>
