<svg width="7" height="7" viewBox="0 0 7 7" fill="none" xmlns="http://www.w3.org/2000/svg">
<path d="M3.88889 0H3.11111V3.88889H3.88889V0ZM5.76722 0.843889L5.215 1.39611C5.82944 1.89 6.22222 2.64833 6.22222 3.5C6.22222 5.005 5.005 6.22222 3.5 6.22222C1.995 6.22222 0.777778 5.005 0.777778 3.5C0.777778 2.64833 1.17056 1.89 1.78111 1.39222L1.23278 0.843889C0.478333 1.48556 0 2.43444 0 3.5C0 5.43278 1.56722 7 3.5 7C5.43278 7 7 5.43278 7 3.5C7 2.43444 6.52167 1.48556 5.76722 0.843889Z" fill="#E45858"/>
</svg>
