<svg width="16" height="11" viewBox="0 0 16 11" fill="none" xmlns="http://www.w3.org/2000/svg">
<path d="M8.64285 11V7.85716H11L7.85714 3.92859L4.71428 7.85716H7.07143V11H8.64285Z" fill="white"/>
<path d="M3.92857 11H5.5V9.42857H3.92857C2.629 9.42857 1.57143 8.371 1.57143 7.07143C1.57143 5.96829 2.5135 4.906 3.67164 4.7025L4.12814 4.62236L4.279 4.18393C4.83136 2.57243 6.20321 1.57143 7.85714 1.57143C10.0234 1.57143 11.7857 3.33379 11.7857 5.5V6.28571H12.5714C13.4381 6.28571 14.1429 6.9905 14.1429 7.85714C14.1429 8.72379 13.4381 9.42857 12.5714 9.42857H10.2143V11H12.5714C14.3047 11 15.7143 9.59043 15.7143 7.85714C15.7131 7.15284 15.4759 6.46924 15.0407 5.91551C14.6054 5.36178 13.9972 4.96984 13.3131 4.80229C12.9698 2.09786 10.6543 0 7.85714 0C5.69171 0 3.81071 1.26579 2.95193 3.26071C1.26421 3.76514 0 5.35857 0 7.07143C0 9.23764 1.76236 11 3.92857 11Z" fill="white"/>
</svg>
