<svg width="675" height="504" viewBox="0 0 675 504" fill="none" xmlns="http://www.w3.org/2000/svg">
<path d="M621.16 397.58C621.16 411.034 610.348 421.94 597.01 421.94C583.672 421.94 572.86 411.034 572.86 397.58" stroke="#F6F6F6" stroke-width="13" stroke-linecap="round" stroke-linejoin="round"/>
<path d="M606.24 42.9C589.537 42.9 576 29.267 576 12.45C576 -4.36708 589.537 -18 606.24 -18" stroke="#F6F6F6" stroke-width="13" stroke-linecap="round" stroke-linejoin="round"/>
<path d="M185.2 6.94058C185.2 20.8798 196.482 32.18 210.4 32.18C224.318 32.18 235.6 20.8798 235.6 6.94058V-21.58" stroke="#F6F6F6" stroke-width="13" stroke-linecap="round" stroke-linejoin="round"/>
<path d="M633.4 171.76V101.066C633.4 87.2223 622.115 76 608.2 76C594.285 76 583 87.2223 583 101.066V112.008" stroke="#F6F6F6" stroke-width="13" stroke-linecap="round" stroke-linejoin="round"/>
<path d="M196.12 159.86C205.398 159.86 212.92 152.338 212.92 143.06C212.92 133.782 205.398 126.26 196.12 126.26C186.842 126.26 179.32 133.782 179.32 143.06C179.32 152.338 186.842 159.86 196.12 159.86Z" stroke="#F6F6F6" stroke-width="13" stroke-linecap="round" stroke-linejoin="round"/>
<path d="M240.36 457.3C253.814 457.3 264.72 446.488 264.72 433.15C264.72 419.812 253.814 409 240.36 409C226.906 409 216 419.812 216 433.15C216 446.488 226.906 457.3 240.36 457.3Z" stroke="#F6F6F6" stroke-width="13" stroke-linecap="round" stroke-linejoin="round"/>
<path d="M26.44 112.4C41.0534 112.4 52.9 100.553 52.9 85.94C52.9 71.3266 41.0534 59.48 26.44 59.48C11.8265 59.48 -0.0200195 71.3266 -0.0200195 85.94C-0.0200195 100.553 11.8265 112.4 26.44 112.4Z" stroke="#F6F6F6" stroke-width="13" stroke-linecap="round" stroke-linejoin="round"/>
<path d="M26.65 143.48C59.2401 143.48 85.66 117.436 85.66 85.31C85.66 53.1836 59.2401 27.14 26.65 27.14C-5.94008 27.14 -32.36 53.1836 -32.36 85.31" stroke="#F6F6F6" stroke-width="13" stroke-linecap="round" stroke-linejoin="round"/>
<path d="M195.7 345.5H151.685C137.601 345.5 124.568 350.373 113.95 358.644M151.529 487.46C115.847 487.46 86.92 455.777 86.92 416.695C86.92 403.124 90.4078 390.445 96.4553 379.676L151.529 487.46Z" stroke="#F6F6F6" stroke-width="13" stroke-linecap="round" stroke-linejoin="round"/>
<path d="M87.13 151.88C73.7921 151.88 62.98 162.692 62.98 176.03C62.98 189.368 73.7921 200.18 87.13 200.18C100.468 200.18 111.28 189.368 111.28 176.03V151.88" stroke="#F6F6F6" stroke-width="13" stroke-linecap="round" stroke-linejoin="round"/>
<path d="M94.48 10.55C94.48 28.2948 108.771 42.68 126.4 42.68C144.029 42.68 158.32 28.2948 158.32 10.55C158.32 -7.19489 144.029 -21.58 126.4 -21.58H94.48" stroke="#F6F6F6" stroke-width="13" stroke-linecap="round" stroke-linejoin="round"/>
<path d="M-20.81 341.965C-36.2353 341.965 -48.74 329.593 -48.74 314.332C-48.74 299.071 -36.2353 286.7 -20.81 286.7C-5.38458 286.7 7.12001 299.071 7.12001 314.332V398.84" stroke="#F6F6F6" stroke-width="13" stroke-linecap="round" stroke-linejoin="round"/>
<path d="M563.195 343.4C563.195 357.549 574.481 369.02 588.4 369.02C602.319 369.02 613.6 357.549 613.6 343.4C613.6 329.251 602.319 317.78 588.4 317.78H503.98" stroke="#F6F6F6" stroke-width="13" stroke-linecap="round" stroke-linejoin="round"/>
<path d="M354.88 36.7121C340.035 36.7121 328 48.5782 328 63.2161C328 77.8539 340.035 89.72 354.88 89.72C369.725 89.72 381.76 77.8539 381.76 63.2161V-22" stroke="#F6F6F6" stroke-width="13" stroke-linecap="round" stroke-linejoin="round"/>
<path d="M406.75 214.283C420.088 214.283 430.9 225.04 430.9 238.311C430.9 251.582 420.088 262.34 406.75 262.34C393.412 262.34 382.6 251.582 382.6 238.311V148.52" stroke="#F6F6F6" stroke-width="13" stroke-linecap="round" stroke-linejoin="round"/>
<path d="M-24.59 216.857C-37.9277 216.857 -48.74 227.509 -48.74 240.649C-48.74 253.789 -37.9277 264.44 -24.59 264.44C-11.2523 264.44 -0.439995 253.789 -0.439995 240.649V143.48" stroke="#F6F6F6" stroke-width="13" stroke-linecap="round" stroke-linejoin="round"/>
<path d="M238.416 143.48C238.416 119.588 219.357 100.22 195.848 100.22C172.338 100.22 153.28 119.588 153.28 143.48C153.28 167.372 172.338 186.74 195.848 186.74H307.42" stroke="#F6F6F6" stroke-width="13" stroke-linecap="round" stroke-linejoin="round"/>
<path d="M625.57 282.52C649.084 282.52 668.14 263.152 668.14 239.26C668.14 215.368 649.084 196 625.57 196H514" stroke="#F6F6F6" stroke-width="13" stroke-linecap="round" stroke-linejoin="round"/>
<path fill-rule="evenodd" clip-rule="evenodd" d="M414.1 51.71C414.1 29.3258 432.051 11.18 454.194 11.18H495.386C517.531 11.18 535.48 29.3258 535.48 51.71C535.48 74.0942 517.531 92.24 495.386 92.24H454.194C432.051 92.24 414.1 74.0942 414.1 51.71Z" stroke="#F6F6F6" stroke-width="13" stroke-linecap="round" stroke-linejoin="round"/>
<path fill-rule="evenodd" clip-rule="evenodd" d="M61.09 343.82C47.2884 343.82 36.1 332.65 36.1 318.872V247.808C36.1 234.03 47.2884 222.86 61.09 222.86C74.8915 222.86 86.08 234.03 86.08 247.808V318.872C86.08 332.65 74.8915 343.82 61.09 343.82Z" stroke="#F6F6F6" stroke-width="13" stroke-linecap="round" stroke-linejoin="round"/>
<path d="M296.92 312.11V274.59C296.92 263.881 305.664 255.2 316.45 255.2C327.236 255.2 335.98 263.881 335.98 274.59V349.63C335.98 360.339 327.236 369.02 316.45 369.02C305.664 369.02 296.92 360.339 296.92 349.63V340.565" stroke="#F6F6F6" stroke-width="13" stroke-linecap="round" stroke-linejoin="round"/>
<path d="M333.04 111.531V114.802C333.04 133.424 317.903 148.52 299.23 148.52C280.557 148.52 265.42 133.424 265.42 114.802V12.1381C265.42 -6.48391 280.557 -21.58 299.23 -21.58C317.903 -21.58 333.04 -6.48391 333.04 12.1381V13.1446" stroke="#F6F6F6" stroke-width="13" stroke-linecap="round" stroke-linejoin="round"/>
<path d="M-20.705 377.84H-22.7255C-37.0929 377.84 -48.74 389.498 -48.74 403.88C-48.74 418.262 -37.0929 429.92 -22.7255 429.92H37.3855C51.7531 429.92 63.4 418.262 63.4 403.88C63.4 389.498 51.7531 377.84 37.3855 377.84H35.365" stroke="#F6F6F6" stroke-width="13" stroke-linecap="round" stroke-linejoin="round"/>
<path d="M264.58 255.2V352.487C264.58 381.567 288.367 405.14 317.71 405.14C347.053 405.14 370.84 381.567 370.84 352.487V329.502" stroke="#F6F6F6" stroke-width="13" stroke-linecap="round" stroke-linejoin="round"/>
<path d="M195.28 272.42H174.622C160.747 272.42 149.5 261.137 149.5 247.22C149.5 233.303 160.747 222.02 174.622 222.02H215.938C229.813 222.02 241.06 233.303 241.06 247.22V249.459C241.06 262.14 230.812 272.42 218.17 272.42" stroke="#F6F6F6" stroke-width="13" stroke-linecap="round" stroke-linejoin="round"/>
<path d="M406.75 176.24H430.346C446.192 176.24 459.04 164.111 459.04 149.15C459.04 134.189 446.192 122.06 430.346 122.06H383.154C367.307 122.06 354.46 134.189 354.46 149.15" stroke="#F6F6F6" stroke-width="13" stroke-linecap="round" stroke-linejoin="round"/>
<path d="M232.66 63.26H176.094C140.298 63.26 111.28 92.4061 111.28 128.36" stroke="#F6F6F6" stroke-width="13" stroke-linecap="round" stroke-linejoin="round"/>
<path d="M383 496.52C383 471.933 402.676 452 426.947 452H504.38" stroke="#F6F6F6" stroke-width="13" stroke-linecap="round" stroke-linejoin="round"/>
<path d="M262.9 222.02H304.217C331.965 222.02 354.46 199.455 354.46 171.62" stroke="#F6F6F6" stroke-width="13" stroke-linecap="round" stroke-linejoin="round"/>
<path d="M503.98 353.48V376.057C503.98 398.846 485.499 417.32 462.699 417.32H430.48" stroke="#F6F6F6" stroke-width="13" stroke-linecap="round" stroke-linejoin="round"/>
<path d="M582.1 240.92H546.817C521.302 240.92 500.62 261.793 500.62 287.54" stroke="#F6F6F6" stroke-width="13" stroke-linecap="round" stroke-linejoin="round"/>
<path d="M406.33 292.58C406.33 295.811 406.33 336.486 406.33 356.42" stroke="#F6F6F6" stroke-width="13" stroke-linecap="round" stroke-linejoin="round"/>
<path d="M341.65 466.04C341.65 467.358 341.65 483.947 341.65 492.08" stroke="#F6F6F6" stroke-width="13" stroke-linecap="round" stroke-linejoin="round"/>
<path d="M349.84 436.64H361.086C384.325 436.64 403.163 417.824 403.163 394.614M467.02 224.54V284.319C467.02 293.725 459.336 301.344 449.857 301.344C440.378 301.344 432.694 308.969 432.694 318.375V321.908C432.694 331.314 440.378 338.939 449.857 338.939C459.336 338.939 467.02 346.564 467.02 355.971V359.882C467.02 371.448 457.571 380.824 445.916 380.824H434.982H418.963L467.02 224.54Z" stroke="#F6F6F6" stroke-width="13" stroke-linecap="round" stroke-linejoin="round"/>
<path d="M571.18 141.767V150.285C571.18 162.3 561.409 172.04 549.364 172.04C537.314 172.04 527.543 162.3 527.543 150.285V143.229C527.543 131.306 517.848 121.64 505.894 121.64C493.935 121.64 484.24 131.306 484.24 143.229V151.913" stroke="#F6F6F6" stroke-width="13" stroke-linecap="round" stroke-linejoin="round"/>
</svg>
