<svg width="56" height="54" viewBox="0 0 56 54" fill="none" xmlns="http://www.w3.org/2000/svg">
<path d="M28.2223 28.2222C24.745 28.2222 21.4102 26.8409 18.9514 24.3821C16.4926 21.9233 15.1112 18.5884 15.1112 15.1111C15.1112 11.6338 16.4926 8.29896 18.9514 5.84015C21.4102 3.38134 24.745 2 28.2223 2C31.6996 2 35.0345 3.38134 37.4933 5.84015C39.9521 8.29896 41.3334 11.6338 41.3334 15.1111C41.3334 18.5884 39.9521 21.9233 37.4933 24.3821C35.0345 26.8409 31.6996 28.2222 28.2223 28.2222Z" stroke="#2B2C34" stroke-opacity="0.07" stroke-width="3" stroke-linecap="round"/>
<path d="M2 61V57.7222C2 52.5063 4.07202 47.504 7.76023 43.8158C11.4484 40.1276 16.4507 38.0555 21.6667 38.0555H34.7778C39.9937 38.0555 44.996 40.1276 48.6842 43.8158C52.3724 47.504 54.4444 52.5063 54.4444 57.7222V61" stroke="#2B2C34" stroke-opacity="0.07" stroke-width="3" stroke-linecap="round"/>
</svg>
