<svg width="732" height="120" viewBox="0 0 732 120" fill="none" xmlns="http://www.w3.org/2000/svg">
<path d="M294.281 95.715C294.281 101.627 299.164 106.42 305.188 106.42C311.212 106.42 316.095 101.627 316.095 95.715V83.6179" stroke="#a51111" stroke-width="5" stroke-linecap="round" stroke-linejoin="round"/>
<path d="M274.962 127.086C278.978 127.086 282.233 123.896 282.233 119.961C282.233 116.025 278.978 112.835 274.962 112.835C270.946 112.835 267.691 116.025 267.691 119.961C267.691 123.896 270.946 127.086 274.962 127.086Z" stroke="#a51111" stroke-width="5" stroke-linecap="round" stroke-linejoin="round"/>
<path d="M221.264 52.1839C227.589 52.1839 232.716 47.1591 232.716 40.9608C232.716 34.7625 227.589 29.7377 221.264 29.7377C214.939 29.7377 209.812 34.7625 209.812 40.9608C209.812 47.1591 214.939 52.1839 221.264 52.1839Z" stroke="#a51111" stroke-width="5" stroke-linecap="round" stroke-linejoin="round"/>
<path d="M221.355 65.3666C235.46 65.3666 246.895 54.3201 246.895 40.6936C246.895 27.0671 235.46 16.0206 221.355 16.0206C207.249 16.0206 195.814 27.0671 195.814 40.6936" stroke="#a51111" stroke-width="5" stroke-linecap="round" stroke-linejoin="round"/>
<path d="M247.532 68.9294C241.759 68.9294 237.079 73.5154 237.079 79.1727C237.079 84.83 241.759 89.416 247.532 89.416C253.304 89.416 257.984 84.83 257.984 79.1727V68.9294" stroke="#a51111" stroke-width="5" stroke-linecap="round" stroke-linejoin="round"/>
<path d="M329.735 63.2912C329.735 70.8177 335.92 76.9193 343.55 76.9193C351.181 76.9193 357.366 70.8177 357.366 63.2912C357.366 55.7647 351.181 49.6632 343.55 49.6632H329.735" stroke="#a51111" stroke-width="5" stroke-linecap="round" stroke-linejoin="round"/>
<path d="M199.177 96.4898C193.405 96.4898 188.725 101.008 188.725 106.581C188.725 112.154 193.405 116.672 199.177 116.672C204.95 116.672 209.63 112.154 209.63 106.581V65.3666" stroke="#a51111" stroke-width="5" stroke-linecap="round" stroke-linejoin="round"/>
<path d="M293.258 120.129C293.258 109.995 285.009 101.78 274.834 101.78C264.659 101.78 256.41 109.995 256.41 120.129C256.41 130.262 264.659 138.477 274.834 138.477H323.124" stroke="#a51111" stroke-width="5" stroke-linecap="round" stroke-linejoin="round"/>
<path fill-rule="evenodd" clip-rule="evenodd" d="M236.261 150.341C230.288 150.341 225.445 145.604 225.445 139.76V109.618C225.445 103.773 230.288 99.0358 236.261 99.0358C242.235 99.0358 247.077 103.773 247.077 109.618V139.76C247.077 145.604 242.235 150.341 236.261 150.341Z" stroke="#a51111" stroke-width="5" stroke-linecap="round" stroke-linejoin="round"/>
<path d="M343.103 130.264H334.162C328.157 130.264 323.289 125.478 323.289 119.575C323.289 113.672 328.157 108.887 334.162 108.887H352.044C358.05 108.887 362.918 113.672 362.918 119.575V120.525C362.918 125.903 358.482 130.264 353.01 130.264" stroke="#a51111" stroke-width="5" stroke-linecap="round" stroke-linejoin="round"/>
<path d="M320.226 65.4561H295.743C280.25 65.4561 267.691 77.8185 267.691 93.0684" stroke="#a51111" stroke-width="5" stroke-linecap="round" stroke-linejoin="round"/>
<path d="M323.608 98.6795H341.49C353.5 98.6795 363.236 89.1085 363.236 77.3022" stroke="#a51111" stroke-width="5" stroke-linecap="round" stroke-linejoin="round"/>
<path d="M195.905 53.2527C195.905 54.9118 195.905 75.7964 195.905 86.0313" stroke="#a51111" stroke-width="5" stroke-linecap="round" stroke-linejoin="round"/>
<path d="M663.045 80.7117C663.045 86.6241 667.928 91.4171 673.952 91.4171C679.976 91.4171 684.859 86.6241 684.859 80.7117V68.6147" stroke="#a51111" stroke-width="5" stroke-linecap="round" stroke-linejoin="round"/>
<path d="M643.726 112.083C647.741 112.083 650.997 108.893 650.997 104.957C650.997 101.022 647.741 97.8315 643.726 97.8315C639.71 97.8315 636.454 101.022 636.454 104.957C636.454 108.893 639.71 112.083 643.726 112.083Z" stroke="#a51111" stroke-width="5" stroke-linecap="round" stroke-linejoin="round"/>
<path d="M590.028 37.1806C596.353 37.1806 601.48 32.1559 601.48 25.9575C601.48 19.7592 596.353 14.7345 590.028 14.7345C583.703 14.7345 578.575 19.7592 578.575 25.9575C578.575 32.1559 583.703 37.1806 590.028 37.1806Z" stroke="#a51111" stroke-width="5" stroke-linecap="round" stroke-linejoin="round"/>
<path d="M590.119 50.3633C604.224 50.3633 615.659 39.3169 615.659 25.6904C615.659 12.0638 604.224 1.0174 590.119 1.0174C576.013 1.0174 564.578 12.0638 564.578 25.6904" stroke="#a51111" stroke-width="5" stroke-linecap="round" stroke-linejoin="round"/>
<path d="M616.295 53.9262C610.523 53.9262 605.843 58.5122 605.843 64.1695C605.843 69.8268 610.523 74.4128 616.295 74.4128C622.068 74.4128 626.748 69.8268 626.748 64.1695V53.9262" stroke="#a51111" stroke-width="5" stroke-linecap="round" stroke-linejoin="round"/>
<path d="M698.499 48.288C698.499 55.8145 704.684 61.916 712.314 61.916C719.944 61.916 726.13 55.8145 726.13 48.288C726.13 40.7615 719.944 34.66 712.314 34.66H698.499" stroke="#a51111" stroke-width="5" stroke-linecap="round" stroke-linejoin="round"/>
<path d="M570.383 142.593C563.707 142.593 558.294 137.345 558.294 130.872C558.294 124.399 563.707 119.152 570.383 119.152C577.059 119.152 582.472 124.399 582.472 130.872V166.716" stroke="#a51111" stroke-width="5" stroke-linecap="round" stroke-linejoin="round"/>
<path d="M567.941 81.4865C562.168 81.4865 557.489 86.0044 557.489 91.5777C557.489 97.151 562.168 101.669 567.941 101.669C573.714 101.669 578.394 97.151 578.394 91.5777V50.3633" stroke="#a51111" stroke-width="5" stroke-linecap="round" stroke-linejoin="round"/>
<path d="M662.022 105.125C662.022 94.9916 653.773 86.7765 643.598 86.7765C633.422 86.7765 625.174 94.9916 625.174 105.125C625.174 115.259 633.422 123.474 643.598 123.474H691.888" stroke="#a51111" stroke-width="5" stroke-linecap="round" stroke-linejoin="round"/>
<path fill-rule="evenodd" clip-rule="evenodd" d="M605.025 135.338C599.051 135.338 594.209 130.6 594.209 124.756V94.6143C594.209 88.7702 599.051 84.0326 605.025 84.0326C610.998 84.0326 615.841 88.7702 615.841 94.6143V124.756C615.841 130.6 610.998 135.338 605.025 135.338Z" stroke="#a51111" stroke-width="5" stroke-linecap="round" stroke-linejoin="round"/>
<path d="M711.867 115.261H702.926C696.921 115.261 692.053 110.475 692.053 104.572C692.053 98.6688 696.921 93.8833 702.926 93.8833H720.808C726.813 93.8833 731.681 98.6688 731.681 104.572V105.522C731.681 110.9 727.246 115.261 721.774 115.261" stroke="#a51111" stroke-width="5" stroke-linecap="round" stroke-linejoin="round"/>
<path d="M688.99 50.4529H664.507C649.014 50.4529 636.454 62.8153 636.454 78.0652" stroke="#a51111" stroke-width="5" stroke-linecap="round" stroke-linejoin="round"/>
<path d="M692.371 83.6763H710.254C722.264 83.6763 732 74.1052 732 62.299" stroke="#a51111" stroke-width="5" stroke-linecap="round" stroke-linejoin="round"/>
<path d="M564.669 38.2495C564.669 39.9086 564.669 60.7932 564.669 71.028" stroke="#a51111" stroke-width="5" stroke-linecap="round" stroke-linejoin="round"/>
<path d="M105.556 66.4982C105.556 72.4105 110.439 77.2035 116.463 77.2035C122.487 77.2035 127.37 72.4105 127.37 66.4982V54.4011" stroke="#a51111" stroke-width="5" stroke-linecap="round" stroke-linejoin="round"/>
<path d="M86.237 97.8695C90.2528 97.8695 93.5083 94.6791 93.5083 90.7437C93.5083 86.8082 90.2528 83.6179 86.237 83.6179C82.2212 83.6179 78.9657 86.8082 78.9657 90.7437C78.9657 94.6791 82.2212 97.8695 86.237 97.8695Z" stroke="#a51111" stroke-width="5" stroke-linecap="round" stroke-linejoin="round"/>
<path d="M32.5391 22.9671C38.864 22.9671 43.9914 17.9423 43.9914 11.744C43.9914 5.54565 38.864 0.520905 32.5391 0.520905C26.2142 0.520905 21.0868 5.54565 21.0868 11.744C21.0868 17.9423 26.2142 22.9671 32.5391 22.9671Z" stroke="#a51111" stroke-width="5" stroke-linecap="round" stroke-linejoin="round"/>
<path d="M32.6301 36.1497C46.7356 36.1497 58.1705 25.1033 58.1705 11.4768C58.1705 -2.14976 46.7356 -13.1962 32.6301 -13.1962C18.5246 -13.1962 7.0896 -2.14976 7.0896 11.4768" stroke="#a51111" stroke-width="5" stroke-linecap="round" stroke-linejoin="round"/>
<path d="M105.903 122.311H86.8528C80.7571 122.311 75.1163 124.377 70.5205 127.886M86.7851 182.523C71.3413 182.523 58.8214 169.085 58.8214 152.508C58.8214 146.752 60.331 141.374 62.9484 136.806L86.7851 182.523Z" stroke="#a51111" stroke-width="5" stroke-linecap="round" stroke-linejoin="round"/>
<path d="M58.8066 39.7126C53.0338 39.7126 48.3541 44.2986 48.3541 49.9559C48.3541 55.6132 53.0338 60.1992 58.8066 60.1992C64.5795 60.1992 69.2591 55.6132 69.2591 49.9559V39.7126" stroke="#a51111" stroke-width="5" stroke-linecap="round" stroke-linejoin="round"/>
<path d="M141.01 34.0744C141.01 41.6009 147.196 47.7025 154.826 47.7025C162.456 47.7025 168.641 41.6009 168.641 34.0744C168.641 26.5479 162.456 20.4464 154.826 20.4464H141.01" stroke="#a51111" stroke-width="5" stroke-linecap="round" stroke-linejoin="round"/>
<path d="M12.8942 128.379C6.21789 128.379 0.805664 123.132 0.805664 116.659C0.805664 110.186 6.21789 104.938 12.8942 104.938C19.5706 104.938 24.9828 110.186 24.9828 116.659V152.503" stroke="#a51111" stroke-width="5" stroke-linecap="round" stroke-linejoin="round"/>
<path d="M10.4525 67.273C4.67974 67.273 0 71.7909 0 77.3641C0 82.9374 4.67974 87.4553 10.4525 87.4553C16.2253 87.4553 20.905 82.9374 20.905 77.3641V36.1498" stroke="#a51111" stroke-width="5" stroke-linecap="round" stroke-linejoin="round"/>
<path d="M104.533 90.9117C104.533 80.778 96.2841 72.5629 86.1088 72.5629C75.9336 72.5629 67.6848 80.778 67.6848 90.9117C67.6848 101.045 75.9336 109.261 86.1088 109.261H134.399" stroke="#a51111" stroke-width="5" stroke-linecap="round" stroke-linejoin="round"/>
<path fill-rule="evenodd" clip-rule="evenodd" d="M47.5362 121.125C41.5626 121.125 36.7201 116.387 36.7201 110.543V80.4008C36.7201 74.5567 41.5626 69.819 47.5362 69.819C53.5097 69.819 58.3522 74.5567 58.3522 80.4008V110.543C58.3522 116.387 53.5097 121.125 47.5362 121.125Z" stroke="#a51111" stroke-width="5" stroke-linecap="round" stroke-linejoin="round"/>
<path d="M154.708 135.394V119.48C154.708 114.938 158.493 111.255 163.161 111.255C167.83 111.255 171.614 114.938 171.614 119.48V151.308C171.614 155.85 167.83 159.533 163.161 159.533C158.493 159.533 154.708 155.85 154.708 151.308V147.463" stroke="#a51111" stroke-width="5" stroke-linecap="round" stroke-linejoin="round"/>
<path d="M154.378 101.047H145.437C139.432 101.047 134.564 96.2615 134.564 90.3584C134.564 84.4552 139.432 79.6697 145.437 79.6697H163.32C169.325 79.6697 174.193 84.4552 174.193 90.3584V91.3079C174.193 96.6867 169.757 101.047 164.285 101.047" stroke="#a51111" stroke-width="5" stroke-linecap="round" stroke-linejoin="round"/>
<path d="M131.501 36.2393H107.018C91.5252 36.2393 78.9657 48.6017 78.9657 63.8516" stroke="#a51111" stroke-width="5" stroke-linecap="round" stroke-linejoin="round"/>
<path d="M134.883 69.4627H152.765C164.775 69.4627 174.511 59.8917 174.511 48.0854" stroke="#a51111" stroke-width="5" stroke-linecap="round" stroke-linejoin="round"/>
<path d="M7.18042 24.0359C7.18042 25.695 7.18042 46.5796 7.18042 56.8145" stroke="#a51111" stroke-width="5" stroke-linecap="round" stroke-linejoin="round"/>
<path d="M480.637 57.8121C480.637 63.7244 485.52 68.5174 491.544 68.5174C497.568 68.5174 502.451 63.7244 502.451 57.8121V45.715" stroke="#a51111" stroke-width="5" stroke-linecap="round" stroke-linejoin="round"/>
<path d="M461.318 89.1833C465.334 89.1833 468.589 85.993 468.589 82.0576C468.589 78.1221 465.334 74.9318 461.318 74.9318C457.302 74.9318 454.047 78.1221 454.047 82.0576C454.047 85.993 457.302 89.1833 461.318 89.1833Z" stroke="#a51111" stroke-width="5" stroke-linecap="round" stroke-linejoin="round"/>
<path d="M407.62 14.2809C413.945 14.2809 419.072 9.25619 419.072 3.05786C419.072 -3.14048 413.945 -8.16522 407.62 -8.16522C401.295 -8.16522 396.168 -3.14048 396.168 3.05786C396.168 9.25619 401.295 14.2809 407.62 14.2809Z" stroke="#a51111" stroke-width="5" stroke-linecap="round" stroke-linejoin="round"/>
<path d="M407.711 27.4636C421.816 27.4636 433.251 16.4172 433.251 2.79067C433.251 -10.8359 421.816 -21.8823 407.711 -21.8823C393.605 -21.8823 382.171 -10.8359 382.171 2.79067" stroke="#a51111" stroke-width="5" stroke-linecap="round" stroke-linejoin="round"/>
<path d="M480.984 113.624H461.934C455.838 113.624 450.197 115.691 445.601 119.2M461.866 173.837C446.422 173.837 433.902 160.399 433.902 143.822C433.902 138.066 435.412 132.688 438.029 128.12L461.866 173.837Z" stroke="#a51111" stroke-width="5" stroke-linecap="round" stroke-linejoin="round"/>
<path d="M433.888 31.0265C428.115 31.0265 423.435 35.6125 423.435 41.2698C423.435 46.9271 428.115 51.5131 433.888 51.5131C439.66 51.5131 444.34 46.9271 444.34 41.2698V31.0265" stroke="#a51111" stroke-width="5" stroke-linecap="round" stroke-linejoin="round"/>
<path d="M516.091 25.3883C516.091 32.9148 522.276 39.0164 529.907 39.0164C537.537 39.0164 543.722 32.9148 543.722 25.3883C543.722 17.8618 537.537 11.7603 529.907 11.7603H516.091" stroke="#a51111" stroke-width="5" stroke-linecap="round" stroke-linejoin="round"/>
<path d="M387.975 119.693C381.299 119.693 375.887 114.446 375.887 107.973C375.887 101.5 381.299 96.2522 387.975 96.2522C394.652 96.2522 400.064 101.5 400.064 107.973V143.817" stroke="#a51111" stroke-width="5" stroke-linecap="round" stroke-linejoin="round"/>
<path d="M385.533 58.5869C379.761 58.5869 375.081 63.1047 375.081 68.678C375.081 74.2513 379.761 78.7692 385.533 78.7692C391.306 78.7692 395.986 74.2513 395.986 68.678V27.4637" stroke="#a51111" stroke-width="5" stroke-linecap="round" stroke-linejoin="round"/>
<path d="M479.614 82.2256C479.614 72.0919 471.365 63.8768 461.19 63.8768C451.015 63.8768 442.766 72.0919 442.766 82.2256C442.766 92.3594 451.015 100.574 461.19 100.574H509.48" stroke="#a51111" stroke-width="5" stroke-linecap="round" stroke-linejoin="round"/>
<path fill-rule="evenodd" clip-rule="evenodd" d="M422.617 112.438C416.644 112.438 411.801 107.701 411.801 101.857V71.7147C411.801 65.8705 416.644 61.1329 422.617 61.1329C428.591 61.1329 433.433 65.8705 433.433 71.7147V101.857C433.433 107.701 428.591 112.438 422.617 112.438Z" stroke="#a51111" stroke-width="5" stroke-linecap="round" stroke-linejoin="round"/>
<path d="M529.789 126.708V110.794C529.789 106.251 533.574 102.569 538.242 102.569C542.91 102.569 546.695 106.251 546.695 110.794V142.622C546.695 147.164 542.91 150.846 538.242 150.846C533.574 150.846 529.789 147.164 529.789 142.622V138.777" stroke="#a51111" stroke-width="5" stroke-linecap="round" stroke-linejoin="round"/>
<path d="M529.459 92.3609H520.518C514.513 92.3609 509.645 87.5754 509.645 81.6722C509.645 75.7691 514.513 70.9836 520.518 70.9836H538.4C544.405 70.9836 549.274 75.7691 549.274 81.6722V82.6218C549.274 88.0006 544.838 92.3609 539.366 92.3609" stroke="#a51111" stroke-width="5" stroke-linecap="round" stroke-linejoin="round"/>
<path d="M506.582 27.5532H482.099C466.606 27.5532 454.047 39.9156 454.047 55.1655" stroke="#a51111" stroke-width="5" stroke-linecap="round" stroke-linejoin="round"/>
<path d="M509.964 60.7766H527.846C539.856 60.7766 549.592 51.2056 549.592 39.3993" stroke="#a51111" stroke-width="5" stroke-linecap="round" stroke-linejoin="round"/>
<path d="M382.261 15.3499C382.261 17.0089 382.261 37.8936 382.261 48.1284" stroke="#a51111" stroke-width="5" stroke-linecap="round" stroke-linejoin="round"/>
</svg>
