<svg width="67" height="49" viewBox="0 0 67 49" fill="none" xmlns="http://www.w3.org/2000/svg">
<path d="M63.65 0H13.4C11.623 0 9.91888 0.705891 8.66238 1.96238C7.40589 3.21888 6.7 4.92305 6.7 6.7V16.75H0V23.45H6.7V30.15H0V36.85H6.7V43.55H0V50.25H6.7V60.3C6.7 62.077 7.40589 63.7811 8.66238 65.0376C9.91888 66.2941 11.623 67 13.4 67H63.65C64.5385 67 65.3906 66.6471 66.0188 66.0188C66.6471 65.3906 67 64.5385 67 63.65V3.35C67 2.46152 66.6471 1.60944 66.0188 0.981192C65.3906 0.352945 64.5385 0 63.65 0ZM36.85 10.0466C42.3708 10.0466 46.9 14.5725 46.9 20.0966C46.8903 22.7594 45.8284 25.3104 43.9459 27.1935C42.0634 29.0767 39.5127 30.1394 36.85 30.15C31.3326 30.15 26.8 25.6174 26.8 20.0966C26.8 14.5725 31.3326 10.0466 36.85 10.0466ZM56.95 53.6H16.75V51.0875C16.75 43.6538 25.8117 36.0125 36.85 36.0125C47.8882 36.0125 56.95 43.6538 56.95 51.0875V53.6Z" fill="#2B2C34" fill-opacity="0.07"/>
</svg>
