<svg width="69" height="63" viewBox="0 0 69 63" fill="none" xmlns="http://www.w3.org/2000/svg">
<path d="M3.71243 31.8757H25.987C26.9716 31.8757 27.9159 31.4846 28.6121 30.7883C29.3083 30.0921 29.6995 29.1479 29.6995 28.1633V5.88866C29.6995 4.90407 29.3083 3.95979 28.6121 3.26358C27.9159 2.56736 26.9716 2.17623 25.987 2.17623H3.71243C2.72783 2.17623 1.78356 2.56736 1.08735 3.26358C0.39113 3.95979 0 4.90407 0 5.88866V28.1633C0 29.1479 0.39113 30.0921 1.08735 30.7883C1.78356 31.4846 2.72783 31.8757 3.71243 31.8757ZM3.71243 69H25.987C26.9716 69 27.9159 68.6089 28.6121 67.9127C29.3083 67.2164 29.6995 66.2722 29.6995 65.2876V43.013C29.6995 42.0284 29.3083 41.0841 28.6121 40.3879C27.9159 39.6917 26.9716 39.3005 25.987 39.3005H3.71243C2.72783 39.3005 1.78356 39.6917 1.08735 40.3879C0.39113 41.0841 0 42.0284 0 43.013V65.2876C0 66.2722 0.39113 67.2164 1.08735 67.9127C1.78356 68.6089 2.72783 69 3.71243 69ZM40.8368 69H63.1113C64.0959 69 65.0402 68.6089 65.7364 67.9127C66.4326 67.2164 66.8238 66.2722 66.8238 65.2876V43.013C66.8238 42.0284 66.4326 41.0841 65.7364 40.3879C65.0402 39.6917 64.0959 39.3005 63.1113 39.3005H40.8368C39.8521 39.3005 38.9079 39.6917 38.2117 40.3879C37.5154 41.0841 37.1243 42.0284 37.1243 43.013V65.2876C37.1243 66.2722 37.5154 67.2164 38.2117 67.9127C38.9079 68.6089 39.8521 69 40.8368 69ZM67.9115 14.4013L54.5987 1.08849C54.2543 0.743435 53.8451 0.469688 53.3948 0.282913C52.9444 0.0961379 52.4616 0 51.974 0C51.4865 0 51.0037 0.0961379 50.5533 0.282913C50.103 0.469688 49.6938 0.743435 49.3493 1.08849L36.0366 14.4013C35.6915 14.7457 35.4178 15.1549 35.231 15.6052C35.0442 16.0556 34.9481 16.5384 34.9481 17.026C34.9481 17.5135 35.0442 17.9963 35.231 18.4467C35.4178 18.8971 35.6915 19.3062 36.0366 19.6506L49.3493 32.9634C49.6938 33.3085 50.103 33.5822 50.5533 33.769C51.0037 33.9558 51.4865 34.0519 51.974 34.0519C52.4616 34.0519 52.9444 33.9558 53.3948 33.769C53.8451 33.5822 54.2543 33.3085 54.5987 32.9634L67.9115 19.6506C68.2566 19.3062 68.5303 18.8971 68.7171 18.4467C68.9039 17.9963 69 17.5135 69 17.026C69 16.5384 68.9039 16.0556 68.7171 15.6052C68.5303 15.1549 68.2566 14.7457 67.9115 14.4013Z" fill="#2B2C34" fill-opacity="0.1"/>
</svg>
