<svg width="62" height="43" viewBox="0 0 62 43" fill="none" xmlns="http://www.w3.org/2000/svg">
<path fill-rule="evenodd" clip-rule="evenodd" d="M6.36617 12.1817L1.65451 7.47025C1.51903 7.33444 1.34627 7.24191 1.15814 7.20439C0.970004 7.16687 0.774966 7.18606 0.597749 7.25951C0.420532 7.33297 0.269117 7.45739 0.162701 7.617C0.0562843 7.7766 -0.000341682 7.96421 1.55115e-06 8.15604V22.2825C1.55115e-06 22.8172 0.43397 23.2511 0.968682 23.2511H15.0959C15.2878 23.2515 15.4754 23.1949 15.635 23.0884C15.7946 22.982 15.919 22.8306 15.9925 22.6534C16.066 22.4762 16.0851 22.2812 16.0476 22.0931C16.0101 21.9049 15.9176 21.7322 15.7817 21.5967L10.5199 16.3351C13.9499 11.5449 18.9509 8.1087 24.6528 6.62447C30.3546 5.14025 36.3964 5.70191 41.7269 8.21174C47.0574 10.7216 51.3392 15.0207 53.8274 20.3611C56.3155 25.7016 56.8525 31.7453 55.3449 37.4407C53.8373 43.1361 50.3805 48.1228 45.576 51.533C40.7715 54.9432 34.9233 56.5612 29.0491 56.1054C23.1749 55.6495 17.6464 53.1488 13.4255 49.0382C9.20466 44.9277 6.55859 39.4675 5.9477 33.6077C5.86857 32.8406 5.48794 32.1364 4.88954 31.6499C4.29115 31.1634 3.524 30.9346 2.75687 31.0137C1.98973 31.0928 1.28545 31.4735 0.79896 32.0718C0.312467 32.6702 0.0836116 33.4373 0.16274 34.2044C0.90819 41.377 4.13105 48.0654 9.27649 53.1181C14.4219 58.1708 21.168 61.2717 28.3534 61.8869C35.5388 62.5022 42.7139 60.5933 48.6434 56.4888C54.573 52.3844 58.8861 46.3413 60.8402 39.3998C62.7943 32.4583 62.2671 25.0527 59.3494 18.458C56.4317 11.8633 51.306 6.492 44.8548 3.26885C38.4036 0.0457051 31.0304 -0.827647 24.0047 0.799145C16.9789 2.42594 10.7401 6.45109 6.3623 12.1817H6.36617ZM30.0291 15.5021C30.7998 15.5021 31.539 15.8083 32.084 16.3532C32.629 16.8982 32.9351 17.6373 32.9351 18.408V30.0005L40.7931 33.1466C41.4855 33.4485 42.0333 34.0081 42.3201 34.7069C42.607 35.4057 42.6105 36.1887 42.3299 36.89C42.0492 37.5913 41.5065 38.1557 40.8168 38.4637C40.127 38.7718 39.3444 38.7991 38.6349 38.54L28.9481 34.6654C28.4093 34.4496 27.9476 34.0773 27.6224 33.5967C27.2971 33.1161 27.1232 32.5491 27.1231 31.9688V18.408C27.1231 17.6373 27.4292 16.8982 27.9742 16.3532C28.5192 15.8083 29.2584 15.5021 30.0291 15.5021Z" fill="#2B2C34" fill-opacity="0.07"/>
</svg>
